<svg width="54" height="17" viewBox="0 0 54 17" fill="none" xmlns="http://www.w3.org/2000/svg">
<path d="M8.53125 16V13.0674H0.796875V10.6826C2.07161 8.27637 4.21647 4.88184 7.23145 0.499023H11.1738V10.8008H13.2578V13.0674H11.1738V16H8.53125ZM3.31055 10.79V10.8652H8.57422V2.55078H8.53125C7.2207 4.44857 6.17155 6.01693 5.38379 7.25586C4.59603 8.49479 3.90495 9.67285 3.31055 10.79Z" fill="black"/>
<path d="M15.084 16V4.61328H17.7588V16H15.084ZM17.4688 2.70117C17.1823 2.98047 16.8314 3.12012 16.416 3.12012C16.0007 3.12012 15.6497 2.98047 15.3633 2.70117C15.0768 2.41471 14.9336 2.07096 14.9336 1.66992C14.9336 1.26172 15.0768 0.917969 15.3633 0.638672C15.6497 0.352214 16.0007 0.208984 16.416 0.208984C16.8314 0.208984 17.1823 0.352214 17.4688 0.638672C17.7624 0.917969 17.9092 1.26172 17.9092 1.66992C17.9092 2.07096 17.7624 2.41471 17.4688 2.70117Z" fill="black"/>
<path d="M20.0039 16V4.61328H22.5713V6.58984H22.625C22.8757 5.91667 23.2874 5.38314 23.8604 4.98926C24.4333 4.59538 25.1029 4.39844 25.8691 4.39844C26.6712 4.39844 27.348 4.59896 27.8994 5C28.458 5.39388 28.8411 5.95605 29.0488 6.68652H29.1133C29.3854 5.9847 29.8366 5.42969 30.4668 5.02148C31.1042 4.60612 31.8346 4.39844 32.6582 4.39844C33.7826 4.39844 34.6813 4.74577 35.3545 5.44043C36.0348 6.13509 36.375 7.05176 36.375 8.19043V16H33.7002V8.8457C33.7002 8.14388 33.5212 7.60319 33.1631 7.22363C32.8122 6.84408 32.3109 6.6543 31.6592 6.6543C31.0146 6.6543 30.4919 6.86914 30.0908 7.29883C29.6898 7.72852 29.4893 8.28353 29.4893 8.96387V16H26.8896V8.70605C26.8896 8.07585 26.707 7.57812 26.3418 7.21289C25.9837 6.84049 25.4932 6.6543 24.8701 6.6543C24.2256 6.6543 23.6992 6.87988 23.291 7.33105C22.8828 7.77507 22.6787 8.34082 22.6787 9.02832V16H20.0039Z" fill="black"/>
<path d="M43.4326 6.4502C42.6878 6.4502 42.0648 6.70801 41.5635 7.22363C41.0693 7.7321 40.7936 8.38737 40.7363 9.18945H46.0537C46.0251 8.38021 45.7708 7.72135 45.291 7.21289C44.8112 6.70443 44.1917 6.4502 43.4326 6.4502ZM46.0645 12.5947H48.5674C48.3955 13.6761 47.8477 14.5534 46.9238 15.2266C46 15.8926 44.8685 16.2256 43.5293 16.2256C41.8249 16.2256 40.4857 15.7028 39.5117 14.6572C38.5378 13.6045 38.0508 12.1686 38.0508 10.3496C38.0508 8.54492 38.5342 7.09831 39.501 6.00977C40.4749 4.92122 41.7819 4.37695 43.4219 4.37695C45.0332 4.37695 46.3115 4.89616 47.2568 5.93457C48.2021 6.96582 48.6748 8.34798 48.6748 10.0811V10.9512H40.7148V11.1123C40.7148 12.029 40.9727 12.7666 41.4883 13.3252C42.0111 13.8838 42.7093 14.1631 43.583 14.1631C44.1989 14.1631 44.7288 14.0234 45.1729 13.7441C45.624 13.4577 45.9212 13.0745 46.0645 12.5947Z" fill="black"/>
<path d="M50.4688 16V4.61328H53.1436V16H50.4688ZM52.8535 2.70117C52.5671 2.98047 52.2161 3.12012 51.8008 3.12012C51.3854 3.12012 51.0345 2.98047 50.748 2.70117C50.4616 2.41471 50.3184 2.07096 50.3184 1.66992C50.3184 1.26172 50.4616 0.917969 50.748 0.638672C51.0345 0.352214 51.3854 0.208984 51.8008 0.208984C52.2161 0.208984 52.5671 0.352214 52.8535 0.638672C53.1471 0.917969 53.2939 1.26172 53.2939 1.66992C53.2939 2.07096 53.1471 2.41471 52.8535 2.70117Z" fill="black"/>
</svg>
