<svg width="50" height="50" viewBox="0 0 50 50" fill="none" xmlns="http://www.w3.org/2000/svg">
<path d="M34.4187 26.1318C34.3789 22.1317 37.1334 19.8777 38.1332 19.1839C37.4051 18.2249 36.5558 17.5646 35.7177 17.1104C34.2341 16.3064 32.7872 16.1431 32.1011 16.1144L32.0782 16.1129C30.4609 15.9492 28.8482 16.585 27.5305 17.1045C26.6309 17.4592 25.8593 17.7634 25.2351 17.7634C24.5513 17.7634 23.758 17.4485 22.8675 17.0952C21.7865 16.6662 20.551 16.1759 19.312 16.1984H19.3104C17.8614 16.2199 16.4678 16.6404 15.2482 17.3795C14.0175 18.1254 12.9641 19.1959 12.2093 20.5086C10.8315 22.8993 10.5354 25.8218 10.8989 28.7118C11.3477 32.2801 12.8 35.7889 14.4699 38.2002C15.2123 39.274 16.0253 40.4131 16.9325 41.263C17.7958 42.0718 18.7469 42.6188 19.8064 42.58V42.58C20.7899 42.5407 21.5094 42.2342 22.2533 41.9173C23.1876 41.5193 24.1574 41.1061 25.7094 41.1061C27.1926 41.1061 28.1217 41.5082 29.0152 41.8948C29.7931 42.2314 30.5415 42.5552 31.6359 42.5347C32.7484 42.514 33.6668 41.9994 34.4824 41.2367C35.3302 40.4438 36.0809 39.3683 36.8194 38.2894C38.18 36.3013 38.899 34.3648 39.1524 33.6098C38.0325 33.0669 34.4608 30.9663 34.4187 26.1319L34.4187 26.1318ZM38.8672 19.6331C38.5192 19.8484 35.1552 21.93 35.1969 26.1257C35.2409 31.1839 39.5298 32.9373 39.7665 33.0341H39.768L39.7783 33.0383L40.1148 33.1776L39.9995 33.522C39.9927 33.5424 40.0004 33.5207 39.9905 33.5527C39.881 33.9033 39.1392 36.28 37.4633 38.7288C36.7029 39.8396 35.9281 40.9488 35.0133 41.8043C34.0662 42.6901 32.9845 43.288 31.6482 43.3129C30.3887 43.3365 29.5641 42.9797 28.7069 42.6088C27.8896 42.2552 27.0395 41.8874 25.7094 41.8874C24.3121 41.8874 23.4188 42.2679 22.5585 42.6344C21.7486 42.9794 20.9653 43.3131 19.8369 43.3581H19.8354C18.5325 43.4065 17.4026 42.7714 16.3985 41.8306C15.4378 40.9306 14.5961 39.752 13.8291 38.6426C12.0977 36.1426 10.592 32.5051 10.1268 28.8064C9.74414 25.764 10.064 22.6735 11.5349 20.1211C12.356 18.693 13.5036 17.5275 14.8454 16.7143C16.181 15.9048 17.7091 15.4441 19.2997 15.4202V15.4202C20.6923 15.3949 22.0054 15.916 23.1543 16.372C23.9675 16.6946 24.6919 16.9822 25.2351 16.9822C25.7149 16.9822 26.4222 16.7033 27.2467 16.3782C28.6391 15.8292 30.3427 15.1577 32.1441 15.3368C32.9006 15.3697 34.4763 15.5509 36.087 16.4238C37.113 16.9799 38.1538 17.8148 39.0094 19.0669L39.2349 19.3971L38.898 19.6147C38.8799 19.6263 38.8975 19.6144 38.8672 19.6331L38.8672 19.6331ZM29.9829 12.5246C30.609 11.7648 31.1288 10.8504 31.4506 9.86295C31.7024 9.08999 31.8319 8.27351 31.7944 7.45351C31.0515 7.54362 30.254 7.80807 29.4963 8.1977C28.6027 8.65719 27.7716 9.28747 27.156 10.0086L27.1544 10.0102C26.556 10.7034 25.9972 11.6216 25.6506 12.6314C25.3959 13.3737 25.2575 14.1618 25.3061 14.9395C26.0872 14.9409 26.871 14.7339 27.5991 14.3866C28.5257 13.9446 29.3586 13.278 29.9821 12.524L29.9829 12.5246L29.9829 12.5246ZM32.1922 10.104C31.84 11.1849 31.2701 12.1867 30.5833 13.0199V13.0214C29.8903 13.8594 28.9646 14.6003 27.9348 15.0916C26.9897 15.5424 25.9536 15.7852 24.9227 15.7049L24.6071 15.6803L24.5656 15.3661C24.4317 14.3529 24.5863 13.3273 24.9121 12.3781C25.2912 11.2736 25.9052 10.2658 26.564 9.50216L26.5639 9.50205C27.2457 8.70336 28.1601 8.00845 29.1393 7.50496C30.1218 6.99973 31.177 6.68381 32.1374 6.64468L32.5004 6.62988L32.5402 6.99258C32.6566 8.05332 32.5151 9.11291 32.1922 10.104L32.1922 10.104Z" fill="#CECECE"/>
</svg>
