<svg width="30" height="20" viewBox="0 0 30 20" fill="none" xmlns="http://www.w3.org/2000/svg">
<path d="M27.6752 0H2.32515C1.04316 0 0 1.04316 0 2.32515V3.87911V7.22778V17.296C0 18.578 1.04316 19.6208 2.32515 19.6208H27.6752C28.9572 19.6208 30 18.578 30 17.296V7.22778V3.87911V2.32515C30 1.04316 28.9572 0 27.6752 0ZM0.965271 2.32515C0.965593 1.5752 1.5752 0.965593 2.32483 0.965593H27.6749C28.4245 0.965593 29.0341 1.57553 29.0341 2.32515V3.39631H0.965271V2.32515ZM29.0344 17.2957C29.0344 18.045 28.4245 18.6549 27.6752 18.6549H2.32515C1.57553 18.6549 0.965593 18.045 0.965593 17.2957V7.71026H29.0344V17.2957ZM29.0344 6.74467H0.965593V4.36158H29.0344V6.74467Z" fill="black"/>
</svg>
