<svg width="30" height="20" viewBox="0 0 30 20" fill="none" xmlns="http://www.w3.org/2000/svg">
<path d="M27.6752 0H2.32515C1.04316 0 0 1.04316 0 2.32515V3.87911V7.22778V17.296C0 18.578 1.04316 19.6208 2.32515 19.6208H27.6752C28.9572 19.6208 30 18.578 30 17.296V7.22778V3.87911V2.32515C30 1.04316 28.9572 0 27.6752 0ZM0.965271 2.32515C0.965593 1.5752 1.5752 0.965593 2.32483 0.965593H27.6749C28.4245 0.965593 29.0341 1.57553 29.0341 2.32515V3.39631H0.965271V2.32515ZM29.0344 17.2957C29.0344 18.045 28.4245 18.6549 27.6752 18.6549H2.32515C1.57553 18.6549 0.965593 18.045 0.965593 17.2957V7.71026H29.0344V17.2957ZM29.0344 6.74467H0.965593V4.36158H29.0344V6.74467Z" fill="black"/>
<path d="M4.66643 16.7518C5.595 16.7518 6.3501 15.997 6.3501 15.0694C6.3501 14.1412 5.595 13.3857 4.66643 13.3857C3.73849 13.3857 2.9834 14.1412 2.9834 15.0694C2.9834 15.997 3.73849 16.7518 4.66643 16.7518ZM4.66643 14.3513C5.06232 14.3513 5.38451 14.6735 5.38451 15.0694C5.38451 15.4647 5.06232 15.7862 4.66643 15.7862C4.27086 15.7862 3.94899 15.4647 3.94899 15.0694C3.94899 14.6735 4.27086 14.3513 4.66643 14.3513Z" fill="black"/>
<path d="M8.26698 15.6091H21.8702C22.1371 15.6091 22.353 15.3932 22.353 15.1264C22.353 14.8595 22.1371 14.6436 21.8702 14.6436H8.26698C8.00015 14.6436 7.78418 14.8595 7.78418 15.1264C7.78418 15.3932 8.00015 15.6091 8.26698 15.6091Z" fill="black"/>
</svg>
