<svg width="22" height="30" viewBox="0 0 22 30" fill="none" xmlns="http://www.w3.org/2000/svg">
<path d="M17.9157 0H3.40749C1.54567 0 0 1.51054 0 3.37237V26.6276C0 28.4895 1.51054 30 3.40749 30H17.9157C19.7775 30 21.3232 28.4895 21.3232 26.6276V3.37237C21.3232 1.51054 19.8126 0 17.9157 0ZM20.2693 26.6276C20.2693 27.9274 19.2155 28.9461 17.9157 28.9461H3.40749C2.10773 28.9461 1.05386 27.8923 1.05386 26.6276V3.37237C1.05386 2.0726 2.10773 1.05386 3.40749 1.05386H17.9157C19.2155 1.05386 20.2693 2.10773 20.2693 3.37237V26.6276Z" fill="black"/>
<path d="M14.4537 1.33691H5.77693C5.4959 1.33691 5.25 1.58282 5.25 1.86385C5.25 2.14488 5.4959 2.39078 5.77693 2.39078H14.4537C14.7348 2.39078 14.9807 2.14488 14.9807 1.86385C14.9807 1.58282 14.7348 1.33691 14.4537 1.33691Z" fill="black"/>
<path d="M10.0064 21.4658C9.02283 21.4658 8.25 22.2738 8.25 23.2223C8.25 23.6789 8.42564 24.1356 8.77693 24.4518C9.09309 24.7679 9.54977 24.9436 10.0064 24.9436C10.99 24.9436 11.7629 24.1356 11.7629 23.1871C11.7629 22.2387 10.99 21.4658 10.0064 21.4658ZM10.0416 23.9248C9.86593 23.9248 9.69028 23.8546 9.54977 23.7141C9.40925 23.5735 9.33899 23.3979 9.33899 23.2223C9.33899 22.8358 9.65515 22.5197 10.0416 22.5197C10.428 22.5197 10.7441 22.8358 10.7441 23.2223C10.7441 23.6087 10.428 23.9248 10.0416 23.9248Z" fill="black"/>
</svg>
