<svg width="32" height="38" viewBox="0 0 32 38" fill="none" xmlns="http://www.w3.org/2000/svg">
<path d="M25.1798 20.4299C25.228 25.1596 28.6138 27.303 29.8576 27.9339C29.5752 28.7514 28.8704 30.5691 27.5958 32.4317C26.8589 33.508 26.1206 34.5646 25.2906 35.3408C24.4951 36.0848 23.6146 36.5729 22.5567 36.5925C21.5025 36.6123 20.7837 36.3025 20.0101 35.9678L20.0076 35.9667C19.1154 35.5807 18.1672 35.1704 16.6597 35.1704C15.0842 35.1704 14.0956 35.5915 13.1626 35.989L13.1605 35.9899C12.4196 36.3055 11.7262 36.5998 10.7775 36.6377L10.7671 36.6381C9.77482 36.6704 8.86898 36.1577 8.02509 35.3671C7.13532 34.5336 6.33443 33.4125 5.5945 32.3422L5.59444 32.3421C3.94541 29.961 2.50871 26.4909 2.06504 22.9634C1.70571 20.1063 2.0008 17.2332 3.35065 14.8908L3.35073 14.8907C4.0896 13.6057 5.12042 12.5585 6.32362 11.8293C7.51556 11.1069 8.87662 10.6964 10.2909 10.6752H10.2913C10.2915 10.6752 10.2917 10.6752 10.292 10.6752L25.1798 20.4299ZM25.1798 20.4299L25.1798 20.4298L25.1797 20.4152" fill="#9E9E9E" stroke="#9E9E9E" stroke-width="0.3"/>
</svg>
