<svg width="70" height="50" viewBox="0 0 70 50" fill="none" xmlns="http://www.w3.org/2000/svg">
<path d="M55.898 18.4044C53.9871 18.4044 52.0987 18.8434 50.3455 19.6878C49.4106 8.97534 41.2899 0.574219 31.4425 0.574219C20.97 0.574219 12.4502 10.0753 12.4502 21.7546C12.4502 23.0079 12.5516 24.2604 12.7527 25.501C12.1686 25.3924 11.5796 25.3385 10.9891 25.3385C4.92971 25.3385 0 30.8413 0 37.6047C0 44.3681 4.92971 49.87 10.9891 49.87H56.3429C56.437 49.87 56.5288 49.8572 56.6165 49.8335C64.141 49.4126 70 42.568 70 34.1376C69.9992 25.4617 63.6735 18.4044 55.898 18.4044ZM56.3019 47.1067C56.2383 47.1086 56.1756 47.1177 56.1152 47.1305H10.9891C6.26131 47.1305 2.41377 42.8564 2.41377 37.6038C2.41377 32.3502 6.2605 28.0762 10.9891 28.0762C12.0004 28.0762 13.0086 28.2825 13.9854 28.6878C14.4134 28.8667 14.8961 28.7535 15.2284 28.3975C15.5615 28.0415 15.6879 27.5029 15.5551 27.0054C15.0965 25.2855 14.864 23.5182 14.864 21.7546C14.864 11.5852 22.3016 3.31282 31.4425 3.31282C40.5834 3.31282 48.0211 11.5852 48.0219 21.7089C48.0203 21.7427 48.0162 21.8313 48.0162 21.8641C48.0162 22.3571 48.2496 22.8117 48.6269 23.0545C49.0051 23.2982 49.4685 23.2918 49.841 23.0399C51.6763 21.7984 53.7706 21.142 55.8972 21.142C62.3419 21.142 67.5846 26.9716 67.5846 34.1358C67.5854 41.1685 62.6292 46.8648 56.3019 47.1067Z" fill="black"/>
</svg>
