<svg width="54" height="56" viewBox="0 0 54 56" fill="none" xmlns="http://www.w3.org/2000/svg">
<path d="M49.2878 3.94666L49.2878 3.94658C48.6568 3.31499 47.7897 2.96033 46.837 2.96033C45.7635 2.96033 44.6638 3.41438 43.8132 4.22716L43.7986 4.24112L43.7829 4.25386L39.7757 7.50642L39.6387 7.63089C38.8817 8.39214 38.5737 9.46648 38.7634 10.5729L38.8079 10.8325L38.6189 11.0161L29.2521 20.111L28.9232 20.4304L28.5766 20.1304L27.0047 18.7702L26.7708 18.5678L26.8474 18.2682C27.9557 13.9338 27.7831 8.28606 24.1663 4.66921C21.4702 1.97315 18.0344 0.5 14.4955 0.5C13.0883 0.5 11.6973 0.735021 10.36 1.19831L49.2878 3.94666ZM49.2878 3.94666L51.9155 6.57566L51.9157 6.57589C52.6369 7.29646 52.9958 8.33618 52.8788 9.44041C52.7778 10.3868 52.3417 11.3116 51.6348 12.0502L51.621 12.0645L51.6084 12.08L48.2218 16.2338C47.6248 16.8209 46.8117 17.1505 45.9185 17.1505C45.7082 17.1505 45.5 17.133 45.2917 17.0975L45.0323 17.0533L44.849 17.2421L36.2627 26.0844L35.8938 26.4643L36.2943 26.8108L51.1772 39.6881L51.177 39.6883L51.1877 39.697C51.2053 39.7114 51.2226 39.728 51.2616 39.7656L51.2626 39.7666M49.2878 3.94666L51.2626 39.7666M14.8557 9.84247L14.8429 10.042L14.5943 13.9226L14.5676 14.34L14.152 14.3875L9.95656 14.8661L9.74351 14.8904L9.57904 14.7529L3.5897 9.74205L3.5895 9.74188C3.19858 9.41448 2.67296 9.30068 2.1826 9.43732L2.18213 9.43745C1.6911 9.57376 1.29873 9.94236 1.13193 10.4235L14.8557 9.84247ZM14.8557 9.84247L14.7274 9.68915M14.8557 9.84247L14.7274 9.68915M14.7274 9.68915L9.67937 3.65584C9.35279 3.26466 9.2388 2.73902 9.37457 2.24808C9.51026 1.75745 9.87865 1.36514 10.3599 1.19833L14.7274 9.68915ZM4.968 23.8666L4.96822 23.8668C7.09032 25.9902 10.171 27.1393 13.9219 27.1393C14.1787 27.1393 14.4387 27.1268 14.7132 27.1136L14.7481 27.1119L16.1864 27.0428L15.1004 27.9884C15.0877 27.9995 15.0751 28.0104 15.0627 28.0213C14.9306 28.1361 14.8141 28.2374 14.7043 28.3473L14.7043 28.3473L3.19609 39.8548C0.196275 42.8546 0.196275 47.7359 3.1961 50.7358L5.12654 52.6662L5.12662 52.6663C6.58014 54.1204 8.51104 54.92 10.567 54.92C12.623 54.92 14.5539 54.1204 16.0074 52.6663L16.0075 52.6662L27.515 41.158L27.5152 41.1578C28.1127 40.5609 28.5832 39.8898 28.9383 39.1711L29.2719 38.4961L29.7646 39.0655L39.985 50.8746C39.9852 50.8749 39.9855 50.8752 39.9858 50.8755C40.0083 50.9013 40.0329 50.9271 40.0662 50.9617C41.0984 51.9911 42.6781 52.588 44.5535 52.588C46.8422 52.588 49.1499 51.6837 50.5683 50.266C50.5683 50.2659 50.5683 50.2659 50.5684 50.2659M4.968 23.8666L50.9218 50.6195L50.5684 50.2659M4.968 23.8666C0.924942 19.8262 -0.429173 14.9317 1.13189 10.4237L4.968 23.8666ZM50.5684 50.2659C51.8097 49.0245 52.652 47.0475 52.8354 45.0275C53.0187 43.0083 52.5371 41.0446 51.2626 39.7666M50.5684 50.2659L51.2626 39.7666M48.3774 48.0763L48.3773 48.0764C47.5043 48.9494 45.9704 49.4909 44.5521 49.4909C43.6752 49.4909 42.8177 49.2838 42.3091 48.8225L42.2867 48.8022L42.2669 48.7793L20.5465 23.683L20.5465 23.6829C20.135 23.2074 19.4762 23.028 18.8824 23.2286L18.8819 23.2287C17.3009 23.7609 15.587 24.0415 13.9212 24.0415C11.1318 24.0415 8.71014 23.229 7.15761 21.6757C5.83597 20.354 3.91699 17.9595 3.62857 14.9289L3.5132 13.7166L4.44717 14.498L8.26434 17.6917L8.26466 17.692C8.58938 17.9642 9.01054 18.0908 9.43413 18.0428L48.3774 48.0763ZM48.3774 48.0763C49.1936 47.2597 49.634 46.0451 49.7602 44.9315C49.8239 44.3689 49.8104 43.8098 49.7136 43.3128C49.6181 42.8229 49.4335 42.353 49.1215 42.0115L49.1018 41.9898L49.0796 41.9707L23.9798 20.2503C23.5043 19.8389 23.3248 19.1807 23.5255 18.5852L23.5256 18.5851C24.1389 16.7635 24.4608 14.5606 24.283 12.4585C24.1055 10.3605 23.4244 8.30892 21.9747 6.85883L21.9747 6.85878C19.9489 4.83299 17.3955 3.67287 14.7536 3.60074L13.6445 3.57047L14.3565 4.4214L17.6267 8.33007L17.6268 8.33022C17.8816 8.63455 18.0097 9.02507 17.9844 9.4222C17.9844 9.42225 17.9844 9.42231 17.9844 9.42236L17.574 15.8301L17.574 15.8304C17.5265 16.5785 16.9497 17.1846 16.2046 17.2698L9.43443 18.0428L48.3774 48.0763ZM7.31611 50.4766L7.31627 50.4768C8.1843 51.3441 9.33975 51.8229 10.567 51.8229C11.7942 51.8229 12.9504 51.3441 13.8179 50.4766L13.4644 50.1231L13.818 50.4766L25.3255 38.9684C26.2355 38.0584 26.6786 36.8572 26.6648 35.6667L26.6627 35.4837L26.5429 35.3453L21.4638 29.4761L21.3571 29.3527L21.198 29.3161C20.8625 29.2387 20.5096 29.1906 20.1441 29.1906C18.9176 29.1906 17.7613 29.6694 16.8939 30.5369L16.8939 30.5369L5.38575 42.0457C3.5931 43.8375 3.59332 46.7531 5.3856 48.5461L5.38568 48.5462L7.31611 50.4766ZM45.6224 13.9915L45.9611 14.1228L46.1906 13.8413L49.3904 9.91761C49.6689 9.62944 49.7849 9.31141 49.8026 9.09046L49.821 8.8603L49.6577 8.69703L47.168 6.20734L47.0023 6.04164L46.7689 6.06297C46.5211 6.08562 46.2144 6.20905 45.9358 6.48199L45.7965 6.60792L42.0232 9.67169L41.7492 9.89412L41.867 10.2268C41.8937 10.3021 41.9306 10.3706 41.9575 10.4183L41.9574 10.4184L41.9631 10.4279L42.5871 11.4783L31.6645 22.0848L31.2732 22.4648L31.6857 22.8216L33.1928 24.1252L33.5498 24.434L33.8786 24.0953L44.3841 13.2752L45.4339 13.8988C45.4343 13.899 45.4347 13.8992 45.435 13.8995C45.5004 13.9386 45.5632 13.9686 45.6224 13.9915Z" fill="black" stroke="#F4EAAF"/>
</svg>
