<svg width="43" height="56" viewBox="0 0 43 56" fill="none" xmlns="http://www.w3.org/2000/svg">
<path d="M35.8314 0H6.81499C3.09134 0 0 2.79072 0 6.23044V49.1945C0 52.6342 3.02108 55.4249 6.81499 55.4249H35.8314C39.555 55.4249 42.6464 52.6342 42.6464 49.1945V6.23044C42.6464 2.79072 39.6253 0 35.8314 0ZM40.5386 49.1945C40.5386 51.5958 38.4309 53.4779 35.8314 53.4779H6.81499C4.21546 53.4779 2.10773 51.5309 2.10773 49.1945V6.23044C2.10773 3.82912 4.21546 1.94701 6.81499 1.94701H35.8314C38.4309 1.94701 40.5386 3.89402 40.5386 6.23044V49.1945Z" fill="black"/>
<path d="M29.9309 6.16504H12.5773C12.0152 6.16504 11.5234 6.61934 11.5234 7.13854C11.5234 7.65775 12.0152 8.11205 12.5773 8.11205H29.9309C30.493 8.11205 30.9848 7.65775 30.9848 7.13854C30.9848 6.61934 30.493 6.16504 29.9309 6.16504Z" fill="black"/>
<path d="M21.2863 43.3535C19.3191 43.3535 17.7734 44.8462 17.7734 46.5985C17.7734 47.4422 18.1247 48.2859 18.8273 48.87C19.4596 49.4542 20.373 49.7787 21.2863 49.7787C23.2535 49.7787 24.7992 48.2859 24.7992 46.5336C24.7992 44.7813 23.2535 43.3535 21.2863 43.3535ZM21.3566 47.8965C21.0053 47.8965 20.654 47.7667 20.373 47.5071C20.0919 47.2475 19.9514 46.923 19.9514 46.5985C19.9514 45.8846 20.5837 45.3005 21.3566 45.3005C22.1294 45.3005 22.7617 45.8846 22.7617 46.5985C22.7617 47.3124 22.1294 47.8965 21.3566 47.8965Z" fill="black"/>
</svg>
