<svg width="45" height="30" viewBox="0 0 45 30" fill="none" xmlns="http://www.w3.org/2000/svg">
<path d="M41.5128 0H3.48772C1.56474 0 0 1.56474 0 3.48772V5.81866V10.8417V25.944C0 27.867 1.56474 29.4313 3.48772 29.4313H41.5128C43.4357 29.4313 45 27.867 45 25.944V10.8417V5.81866V3.48772C45 1.56474 43.4357 0 41.5128 0ZM1.44791 3.48772C1.44839 2.36281 2.36281 1.44839 3.48724 1.44839H41.5123C42.6367 1.44839 43.5511 2.36329 43.5511 3.48772V5.09447H1.44791V3.48772ZM43.5516 25.9435C43.5516 27.0675 42.6367 27.9824 41.5128 27.9824H3.48772C2.36329 27.9824 1.44839 27.0675 1.44839 25.9435V11.5654H43.5516V25.9435V25.9435ZM43.5516 10.117H1.44839V6.54237H43.5516V10.117Z" fill="white"/>
<path d="M6.9972 25.1292C8.39007 25.1292 9.52271 23.997 9.52271 22.6056C9.52271 21.2132 8.39007 20.0801 6.9972 20.0801C5.6053 20.0801 4.47266 21.2132 4.47266 22.6056C4.47266 23.997 5.6053 25.1292 6.9972 25.1292ZM6.9972 21.5285C7.59104 21.5285 8.07432 22.0117 8.07432 22.6056C8.07432 23.1985 7.59104 23.6808 6.9972 23.6808C6.40384 23.6808 5.92105 23.1985 5.92105 22.6056C5.92105 22.0117 6.40384 21.5285 6.9972 21.5285Z" fill="white"/>
<path d="M12.4 23.4123H32.8049C33.2051 23.4123 33.5291 23.0883 33.5291 22.6881C33.5291 22.2878 33.2051 21.9639 32.8049 21.9639H12.4C11.9997 21.9639 11.6758 22.2878 11.6758 22.6881C11.6758 23.0883 11.9997 23.4123 12.4 23.4123Z" fill="white"/>
</svg>
