<svg width="39" height="47" viewBox="0 0 39 47" fill="none" xmlns="http://www.w3.org/2000/svg">
<path d="M12.365 11.6202L12.2697 11.622V11.6226C10.3464 11.6778 8.50157 12.2465 6.88478 13.2264L6.96253 13.3547L6.88478 13.2264C5.2191 14.2359 3.7952 15.6823 2.77671 17.4537C0.953262 20.6179 0.561467 24.4401 1.03282 28.1878C1.60585 32.7438 3.4596 37.223 5.59407 40.305C6.53303 41.6631 7.57247 43.1198 8.76269 44.2349C10.0065 45.4002 11.4267 46.2069 13.0778 46.1469V46.147L13.0838 46.1467C14.4937 46.0905 15.4746 45.6726 16.4658 45.2503L16.4709 45.2482C17.5219 44.8004 18.5925 44.3449 20.2723 44.3449C21.8694 44.3449 22.8868 44.7846 23.8851 45.2165L23.8896 45.2184C24.9401 45.673 25.9753 46.1209 27.5509 46.0913C29.2364 46.06 30.5954 45.3043 31.7733 44.2027C32.9079 43.1416 33.8659 41.7691 34.7962 40.4101L34.6724 40.3254L34.7962 40.4101C36.862 37.3914 37.7761 34.4629 37.9117 34.0286L37.9117 34.0285C37.9133 34.0233 37.9147 34.0188 37.9159 34.0149C37.917 34.0113 37.9179 34.0082 37.9186 34.0056C37.9192 34.0033 37.9201 34.0001 37.9211 33.9961C37.9213 33.9955 37.9215 33.9947 37.9218 33.9939L37.9216 33.9938L37.9218 33.9939L38.063 33.572L38.1074 33.4393L37.9782 33.3858L37.5659 33.2151L37.5533 33.2099L37.5258 33.1985H37.5238C37.0321 32.9944 32.0976 30.84 32.0457 24.8836L32.0457 24.8834C31.9964 19.9167 35.9112 17.4063 36.4466 17.0735L36.4712 17.0583L36.4713 17.0582L36.4864 17.049C36.4869 17.0488 36.4873 17.0485 36.4877 17.0483C36.4914 17.0464 36.4945 17.0446 36.4971 17.0431C36.5013 17.0406 36.5062 17.0375 36.5114 17.0341L12.365 11.6202ZM12.365 11.6202C12.3774 11.62 12.3898 11.6198 12.4022 11.6196L12.417 11.6193C14.1531 11.5878 15.7852 12.2355 17.1856 12.7912L17.1974 12.7959C17.6968 12.9941 18.1626 13.1789 18.5864 13.3145C19.0114 13.4505 19.382 13.5329 19.6912 13.5329C19.9605 13.5329 20.3055 13.4538 20.7188 13.3196C21.1299 13.1861 21.5944 13.0031 22.1007 12.8034L22.113 12.7986C23.8106 12.1293 25.9247 11.2958 28.1663 11.5174C29.1076 11.5587 31.0601 11.7844 33.0577 12.8669C34.3332 13.5582 35.6272 14.5963 36.6904 16.1523L36.5665 16.2369L36.6904 16.1523L36.9667 16.5568L37.0536 16.684L36.9242 16.7675L36.5115 17.034L12.365 11.6202ZM30.7925 24.9071C30.8496 30.7463 35.0531 33.3732 36.5574 34.1301C36.216 35.1236 35.3458 37.3847 33.7598 39.7023C32.8533 41.0264 31.9426 42.33 30.9179 43.2883C29.9351 44.2074 28.8437 44.8136 27.5303 44.838C26.2248 44.8626 25.3341 44.4784 24.3819 44.0664L24.3794 44.0653C23.282 43.5905 22.1203 43.0878 20.2723 43.0878C18.3404 43.0878 17.1291 43.6039 15.9815 44.0927L15.9794 44.0936C15.0677 44.482 14.209 44.8467 13.0345 44.8936L13.0207 44.8941C11.7865 44.9341 10.6633 44.2961 9.62207 43.3206L9.51952 43.4301L9.62207 43.3206C8.52396 42.2919 7.53637 40.9092 6.62596 39.5923L6.62589 39.5922C4.59337 36.6574 2.82314 32.3815 2.27641 28.0345C1.83361 24.5137 2.19669 20.9695 3.86295 18.0781L3.86302 18.0779C4.77523 16.4914 6.04798 15.1985 7.5338 14.298C9.00581 13.4058 10.6869 12.8987 12.4339 12.8726H12.4347V12.8727L12.435 12.8726L12.4374 12.8726C13.92 12.8457 15.4052 13.4329 16.7353 13.9608L16.7906 13.8213L16.7353 13.9608L16.7594 13.9703C17.8312 14.3957 18.8249 14.79 19.6912 14.79C20.096 14.79 20.5405 14.6917 21.0157 14.5424C21.4905 14.3933 22.0065 14.1899 22.5548 13.9737L22.5584 13.9723C24.1794 13.3332 26.1209 12.5708 28.0598 12.7671L28.0598 12.7672L28.0649 12.7676L28.093 12.7694L28.093 12.7695L28.0967 12.7696C28.9244 12.8043 30.6721 13.0016 32.4623 13.9718C33.4363 14.4997 34.4226 15.2583 35.2787 16.3481C33.9486 17.3022 30.7445 20.0805 30.7923 24.8939L30.7925 24.907L30.7925 24.9071ZM27.1634 4.91445C26.7901 6.0602 26.1953 7.12523 25.4777 8.02112L25.3914 8.1255C24.6409 9.03299 23.6377 9.83581 22.5229 10.3676C21.6918 10.764 20.8044 11.0065 19.9208 11.0287C19.8872 10.1456 20.0507 9.25065 20.3422 8.40135L20.2083 8.3554L20.3422 8.40134C20.7591 7.18657 21.4313 6.08069 22.1508 5.24568L22.1509 5.24585L22.1587 5.23678C22.8985 4.37016 23.9005 3.60949 24.9804 3.05417C25.8407 2.61179 26.7401 2.30482 27.583 2.17984C27.6047 3.10919 27.4502 4.03422 27.1634 4.91445ZM26.3591 8.92608L26.3935 8.88448V8.88227C27.2028 7.89055 27.8788 6.70983 28.3129 5.43547L28.3139 5.4357L28.3572 5.30273C28.7585 4.07106 28.9352 2.75145 28.7901 1.428L28.7901 1.42799L28.7414 0.983641L28.7261 0.844422L28.5861 0.850124L28.1414 0.868247C26.9382 0.917272 25.6242 1.31218 24.4058 1.93868C23.1911 2.56325 22.0548 3.42616 21.2052 4.42138L21.1152 4.52681L21.1155 4.52713C20.3313 5.46233 19.6074 6.6717 19.1537 7.99365C18.7488 9.17339 18.5546 10.4536 18.7223 11.7226L18.7732 12.1075L18.7892 12.228L18.9103 12.2374L19.2968 12.2676C20.591 12.3684 21.8865 12.0634 23.0633 11.5021C24.3454 10.8905 25.4967 9.96891 26.3591 8.92608Z" fill="white" stroke="white" stroke-width="0.3"/>
</svg>
