<svg width="45" height="56" viewBox="0 0 45 56" fill="none" xmlns="http://www.w3.org/2000/svg">
<path d="M44.6338 11.8852L32.1289 0.338287C31.8946 0.121783 31.5772 0 31.2451 0H5.00004C2.24238 0 0 2.0714 0 4.61878V50.8063C0 53.3535 2.24238 55.4249 5.00004 55.4249H40.0001C42.7576 55.4249 45 53.3535 45 50.8062V12.7015C45 12.3948 44.8682 12.1017 44.6338 11.8852ZM42.5 50.8062C42.5 52.0792 41.3782 53.1155 40.0001 53.1155H5.00004C3.62191 53.1155 2.50008 52.0792 2.50008 50.8062V4.61878C2.50008 3.34574 3.62191 2.30944 5.00004 2.30944H30.7276L42.5 13.1797V50.8062Z" fill="black"/>
<path d="M25.1353 44.4406C25.2146 43.1673 24.1616 42.0757 22.7833 42.0024C21.4049 41.929 20.2231 42.9018 20.1438 44.175C20.0644 45.4483 21.1174 46.5399 22.4958 46.6133C23.8741 46.6866 25.0559 45.7139 25.1353 44.4406Z" fill="black"/>
<path d="M22.5 36.9504C23.328 36.9504 24 36.4454 24 35.8214V17.757C24 17.133 23.328 16.6279 22.5 16.6279C21.672 16.6279 21 17.133 21 17.757V35.8214C21 36.4454 21.672 36.9504 22.5 36.9504Z" fill="black"/>
</svg>
