<svg width="60" height="56" viewBox="0 0 60 56" fill="none" xmlns="http://www.w3.org/2000/svg">
<path d="M59.314 49.1336L47.981 38.6715C47.7775 38.4834 47.5008 38.3777 47.2124 38.3777C47.2124 38.3777 47.2125 38.3777 47.2117 38.3777C46.9241 38.3777 46.6474 38.4834 46.4432 38.6715L44.5837 40.3905L41.2385 37.301C45.3196 33.3363 47.8318 27.9825 47.8318 22.0926C47.8318 9.91077 37.1029 3.38824e-08 23.9155 3.38824e-08C10.7289 -0.000669115 0 9.9101 0 22.092C0 34.2745 10.7289 44.1846 23.9163 44.1846C29.9475 44.1846 35.4608 42.1069 39.6723 38.6922L43.0487 41.8104L41.4913 43.2498C41.0675 43.6419 41.0675 44.2776 41.492 44.669L52.8243 55.1312C53.0278 55.3192 53.3045 55.4249 53.5928 55.4249C53.8811 55.4249 54.1571 55.3192 54.3614 55.1312L59.3147 50.5529C59.5183 50.3648 59.6327 50.1092 59.6327 49.8429C59.632 49.5766 59.5176 49.3216 59.314 49.1336ZM2.17315 22.092C2.17315 11.0169 11.927 2.00678 23.9163 2.00678C35.9055 2.00678 45.6594 11.0169 45.6594 22.092C45.6594 33.167 35.9055 42.1771 23.9163 42.1771C11.927 42.1771 2.17315 33.167 2.17315 22.092ZM53.5914 53.002L43.797 43.9584L47.2139 40.8L57.009 49.8436L53.5914 53.002Z" fill="black"/>
</svg>
