<svg width="70" height="56" viewBox="0 0 70 56" fill="none" xmlns="http://www.w3.org/2000/svg">
<path d="M64.0245 0H16.3178C13.4692 0 11.1867 1.85021 11.1211 4.23999V13.4831C11.1211 14.0811 11.6451 14.5651 12.2924 14.5651C12.9397 14.5651 13.4637 14.0811 13.4637 13.4831V4.2674C13.4957 3.1075 14.7764 2.16399 16.3178 2.16399H64.0245C65.6003 2.16399 66.8817 3.12697 66.8817 4.3114V39.6177C66.8817 40.8028 65.5995 41.7665 64.0245 41.7665H16.3178C14.7443 41.7665 13.4637 40.8028 13.4637 39.6177V34.5633C13.4637 33.9661 12.9397 33.4813 12.2924 33.4813C11.6451 33.4813 11.1211 33.9661 11.1211 34.5633V39.6177C11.1211 41.9959 13.452 43.9305 16.3178 43.9305H38.821V53.2609H23.9524C23.3051 53.2609 22.7811 53.7457 22.7811 54.3429C22.7811 54.9402 23.3051 55.4249 23.9524 55.4249H55.9011C56.5476 55.4249 57.0724 54.9402 57.0724 54.3429C57.0724 53.7457 56.5476 53.2609 55.9011 53.2609H41.1637V43.9298H64.0245C66.8919 43.9298 69.2243 41.9952 69.2243 39.617V4.3114C69.2243 1.93389 66.8919 0 64.0245 0Z" fill="black"/>
<path d="M12.0535 27.7922C12.3557 27.7922 12.6556 27.6847 12.882 27.4755L29.8051 11.8421C30.2627 11.4194 30.2627 10.7341 29.8051 10.3121C29.3475 9.88944 28.6065 9.88944 28.1489 10.3121L11.9262 25.2985L1.85062 18.6724C1.32275 18.3261 0.592635 18.4401 0.217034 18.9263C-0.157785 19.4132 -0.0351876 20.0891 0.492683 20.4353L11.3757 27.5916C11.5795 27.7265 11.8177 27.7922 12.0535 27.7922Z" fill="black"/>
</svg>
