<svg width="32" height="45" viewBox="0 0 32 45" fill="none" xmlns="http://www.w3.org/2000/svg">
<path d="M26.8735 0H5.11124C2.3185 0 0 2.26581 0 5.05855V39.9415C0 42.7342 2.26581 45 5.11124 45H26.8735C29.6663 45 31.9848 42.7342 31.9848 39.9415V5.05855C31.9848 2.26581 29.719 0 26.8735 0ZM30.404 39.9415C30.404 41.8911 28.8232 43.4192 26.8735 43.4192H5.11124C3.16159 43.4192 1.5808 41.8384 1.5808 39.9415V5.05855C1.5808 3.1089 3.16159 1.5808 5.11124 1.5808H26.8735C28.8232 1.5808 30.404 3.16159 30.404 5.05855V39.9415Z" fill="white"/>
<path d="M21.6806 2.00684H8.6654C8.24385 2.00684 7.875 2.37569 7.875 2.79723C7.875 3.21878 8.24385 3.58763 8.6654 3.58763H21.6806C22.1022 3.58763 22.471 3.21878 22.471 2.79723C22.471 2.37569 22.1022 2.00684 21.6806 2.00684Z" fill="white"/>
<path d="M15.0097 32.1973C13.5343 32.1973 12.375 33.4092 12.375 34.8319C12.375 35.5169 12.6385 36.2019 13.1654 36.6762C13.6396 37.1504 14.3246 37.4139 15.0097 37.4139C16.4851 37.4139 17.6443 36.202 17.6443 34.7792C17.6443 33.3565 16.4851 32.1973 15.0097 32.1973ZM15.0624 35.8858C14.7989 35.8858 14.5354 35.7804 14.3246 35.5696C14.1139 35.3589 14.0085 35.0954 14.0085 34.8319C14.0085 34.2523 14.4827 33.7781 15.0624 33.7781C15.642 33.7781 16.1162 34.2523 16.1162 34.8319C16.1162 35.4116 15.642 35.8858 15.0624 35.8858Z" fill="white"/>
</svg>
