<svg width="59" height="61" viewBox="0 0 59 61" fill="none" xmlns="http://www.w3.org/2000/svg">
<path d="M9.35137 16.0744L2.53904 10.3751C2.32855 10.1988 2.06242 10.1019 1.78941 10.1019C1.68405 10.1019 1.57892 10.1163 1.47693 10.1447C1.10508 10.2479 0.808399 10.5266 0.682375 10.8903C-1.02767 15.8283 0.511423 21.1788 4.90511 25.5694C7.22611 27.8917 10.6032 29.1189 14.6719 29.1189H15.0895L16.8828 30.6012L2.88955 44.5934C1.35098 46.1321 0.503635 48.1812 0.503635 50.3635C0.503635 52.5457 1.35098 54.5949 2.88963 56.1336L5.0855 58.3296C6.62639 59.8712 8.67549 60.72 10.8556 60.72C13.0357 60.72 15.0848 59.8712 16.6256 58.3297L29.7156 45.2388C30.328 44.6271 30.8349 43.9195 31.2226 43.135L31.9982 41.568L33.1411 42.8902L44.768 56.3244C44.786 56.345 44.8076 56.3673 44.8295 56.39C45.9166 57.4716 47.5803 58.0672 49.5158 58.0672C51.9548 58.0672 54.4161 57.1215 55.9392 55.599C58.558 52.9804 59.4542 47.2316 56.732 44.4961L56.731 44.495C56.7138 44.4786 56.6995 44.464 56.6842 44.4508L56.6638 44.4336L38.8038 28.9803L49.8526 17.6022L50.4545 17.7045C50.6569 17.7391 50.8632 17.7566 51.0685 17.7566C51.9084 17.7566 52.6816 17.4543 53.2523 16.9041L57.1102 12.1719L57.1412 12.1396C57.8496 11.3996 58.2957 10.4674 58.3973 9.51484C58.51 8.45094 58.1727 7.43855 57.4718 6.7382L54.4824 3.74717C53.8713 3.13547 53.0299 2.79866 52.1132 2.79866C51.0364 2.79866 49.9318 3.26412 49.0824 4.07582L49.0144 4.1358L44.4658 7.82808L44.3335 7.94812C43.6273 8.66487 43.3282 9.69051 43.5126 10.7662L43.615 11.3687L43.1782 11.7939L31.7589 22.8818L28.6243 20.1693L28.8008 19.4746C29.3749 17.2296 30.8616 9.5245 25.9063 4.56928C22.9598 1.62274 19.2016 0 15.3242 0C13.7905 0 12.2729 0.256316 10.8136 0.76176C10.4501 0.887709 10.1719 1.18401 10.0695 1.55429C9.96696 1.92503 10.0531 2.32287 10.3001 2.61857L16.3396 9.83683L15.9653 15.6825L15.0014 15.7933L9.73303 16.3943L9.35137 16.0744ZM28.0621 43.5851L14.9721 56.6759C13.8727 57.7752 12.4108 58.3807 10.8556 58.3807C9.30157 58.3807 7.83975 57.7754 6.73953 56.6763L4.54321 54.4799C3.44524 53.3815 2.84066 51.9197 2.84066 50.3636C2.84066 48.8074 3.44539 47.3459 4.54344 46.2483L17.634 33.1569C18.7334 32.0576 20.1951 31.4523 21.7497 31.4523C22.1791 31.4523 22.6271 31.5054 23.0815 31.61L23.4516 31.6962L29.7546 38.9795L29.7591 39.405C29.7773 40.9876 29.1746 42.4725 28.0621 43.5851ZM34.4414 23.5372L46.5316 11.7967L46.0482 10.9826C45.9825 10.8664 45.9375 10.77 45.902 10.6702L45.6278 9.89755L46.2651 9.38103L50.5451 5.9059L50.6832 5.78092C51.192 5.28641 51.7142 5.17117 51.9822 5.14669L52.5232 5.09667L56.1197 8.6931L56.0767 9.22775C56.0415 9.67142 55.8177 10.1375 55.4603 10.5146L51.3034 15.6124L50.5167 15.3064C50.414 15.2665 50.312 15.2164 50.2137 15.1576L49.4225 14.6876L37.0343 27.4467L33.5343 24.4194L34.4414 23.5372ZM17.2014 17.8959C17.7646 17.8316 18.1996 17.3746 18.2355 16.8094L18.7024 9.51948C18.7215 9.21884 18.6257 8.92605 18.4325 8.69535L13.0594 2.27322L15.6341 2.34376C18.7747 2.4295 21.8348 3.80708 24.2505 6.22287C25.841 7.81378 26.8079 10.1426 27.0468 12.9575C27.2465 15.3108 26.9305 17.872 26.1571 20.1692C26.0047 20.6213 26.1394 21.1148 26.5001 21.4269L55.1013 46.1772L55.1457 46.2256C55.8858 47.0354 56.2066 48.4165 56.0262 50.0147C55.8492 51.5823 55.2143 53.0149 54.2842 53.9454C53.2012 55.0283 51.329 55.728 49.5142 55.728C48.2804 55.728 47.2056 55.395 46.5651 54.8144L46.5147 54.7688L46.4702 54.7174L21.7599 26.1665C21.5373 25.9093 21.2148 25.762 20.8749 25.762C20.7486 25.762 20.6237 25.7825 20.5036 25.8231C18.6459 26.4485 16.6294 26.7789 14.6711 26.7789C11.2861 26.7789 8.40503 25.7616 6.55877 23.9144C4.83457 22.1902 2.70864 19.396 2.37378 15.8774L2.10645 13.0637L8.61619 18.5101C8.86067 18.715 9.18319 18.8113 9.5006 18.7753L17.2014 17.8959Z" fill="black"/>
</svg>
