<svg width="54" height="62" viewBox="0 0 54 62" fill="none" xmlns="http://www.w3.org/2000/svg">
<path d="M49.2721 5.17165L49.272 5.17157C48.637 4.47524 47.7746 4.09364 46.837 4.09364C45.7789 4.09364 44.6839 4.58395 43.8293 5.47851L43.8152 5.49323L43.8 5.50676L39.7926 9.0701L39.6548 9.20717C38.8883 10.0512 38.5702 11.2535 38.7645 12.4959L38.8023 12.7375L38.6348 12.9156L29.2681 22.8788L28.9242 23.2446L28.5598 22.8992L26.9879 21.4091L26.7798 21.2118L26.8449 20.9326C27.9573 16.1671 27.7853 9.94488 24.1506 5.96317C21.4499 3.0047 18.0184 1.39844 14.4955 1.39844C13.0938 1.39844 11.7076 1.65482 10.3737 2.16105C9.90308 2.33973 9.52066 2.77026 9.37745 3.33751L8.89266 3.21513L9.37745 3.33752C9.23396 3.90593 9.35692 4.50969 9.69293 4.95083C9.69302 4.95096 9.69312 4.95109 9.69322 4.95122L14.7413 11.5605L14.8539 11.708L14.8431 11.8932L14.5945 16.1443L14.5702 16.5597L14.1574 16.6113L9.96189 17.1357L9.73249 17.1643L9.56205 17.0081L3.57271 11.519L3.57251 11.5188C3.1805 11.1591 2.66723 11.0429 2.19436 11.1872L2.19386 11.1874C1.7161 11.3327 1.31161 11.734 1.1362 12.2885M49.2721 5.17165L1.1362 12.2885M49.2721 5.17165L51.8998 8.05161L51.9 8.05186C52.6289 8.84971 52.9981 10.0107 52.8784 11.2493C52.7753 12.3081 52.3308 13.3347 51.6195 14.1487L51.6066 14.1634L51.5949 14.1792L48.2071 18.731C47.6061 19.3792 46.7972 19.7339 45.9185 19.7339C45.7109 19.7339 45.5054 19.715 45.2995 19.6765L45.0213 19.6246L44.8335 19.8364L36.2473 29.5228L35.9265 29.8847L36.2775 30.2174L51.1604 44.324L51.1602 44.3241L51.1706 44.3334C51.1757 44.338 51.1807 44.3427 51.1862 44.3481C51.2006 44.3622 51.218 44.3805 51.2467 44.4108C52.5329 45.8235 53.0201 47.9992 52.8351 50.2326C52.6501 52.4647 51.8007 54.6457 50.5526 56.013C49.1306 57.5701 46.8276 58.5544 44.5535 58.5544C42.6918 58.5544 41.1171 57.9063 40.0817 56.775C40.0483 56.7369 40.0231 56.708 40 56.679C39.9998 56.6787 39.9995 56.6785 39.9993 56.6782M49.2721 5.17165L39.9993 56.6782M1.1362 12.2885C-0.438025 17.2684 0.935087 22.6614 4.98373 27.0936L4.98394 27.0938C7.10925 29.4234 10.1848 30.6763 13.9219 30.6763C14.1775 30.6763 14.4365 30.6626 14.7113 30.6481L14.7458 30.6463L16.0943 30.5753L15.1172 31.5074C15.1044 31.5196 15.0918 31.5316 15.0792 31.5435C14.9474 31.6692 14.8304 31.7806 14.72 31.9016L14.72 31.9016L3.21182 44.5076C0.191034 47.8168 0.191034 53.2186 3.21183 56.5277L5.14226 58.6424L5.14234 58.6425C6.60012 60.2402 8.52651 61.1089 10.567 61.1089C12.6075 61.1089 14.5339 60.2402 15.9917 58.6425L15.9918 58.6425L27.4993 46.0357L27.4995 46.0355C28.0991 45.3793 28.5727 44.6398 28.9308 43.846L29.269 43.0962L29.7789 43.7416L39.9993 56.6782M1.1362 12.2885L39.9993 56.6782M48.3932 53.514L48.3931 53.5141C47.5232 54.4669 45.9842 55.0661 44.5521 55.0661C43.6657 55.0661 42.801 54.8357 42.2926 54.3306L42.2712 54.3094L42.2526 54.2858L20.5323 26.7937L20.5323 26.7937C20.1138 26.264 19.4668 26.0833 18.8959 26.2944L18.8954 26.2946C17.311 26.8789 15.5924 27.1872 13.9212 27.1872C11.119 27.1872 8.69179 26.2917 7.14197 24.5932L48.3932 53.514ZM48.3932 53.514C49.2016 52.6279 49.6362 51.3129 49.7607 50.109C49.8237 49.5003 49.8101 48.8974 49.7151 48.3632C49.6215 47.8374 49.4414 47.3353 49.1364 46.9696L49.1176 46.9471L49.0964 46.927L23.9966 23.1332C23.5128 22.6745 23.3169 21.9212 23.5296 21.23L23.5296 21.2298C24.14 19.2439 24.46 16.843 24.2833 14.5539C24.107 12.2716 23.4315 10.0413 21.9904 8.46223L21.9904 8.46218C19.9692 6.24802 17.4119 4.97013 14.7549 4.89066L13.7051 4.85927L14.3426 5.69392L17.6128 9.97573L17.6129 9.97587C17.8747 10.3183 18.011 10.7655 17.9842 11.2261L17.5738 18.2456L17.5738 18.2458C17.5231 19.1223 16.9143 19.7753 16.1992 19.8649L9.42913 20.7117C9.02129 20.7624 8.60817 20.6306 8.28164 20.3308L8.28133 20.3306L4.46416 16.832L3.517 15.9638M48.3932 53.514L3.517 15.9638M3.517 15.9638L3.6282 17.2438M3.517 15.9638L3.6282 17.2438M3.6282 17.2438C3.914 20.5336 5.81847 23.1433 7.14189 24.5931L3.6282 17.2438ZM7.30039 56.1434L7.30054 56.1436C8.16431 57.089 9.32428 57.6207 10.567 57.6207C11.8096 57.6207 12.9704 57.0891 13.8337 56.1434L13.4644 55.8063L13.8337 56.1434L25.3412 43.5367C26.2448 42.5468 26.6783 41.2491 26.6648 39.971L26.663 39.8003L26.5572 39.6663L21.4781 33.2369L21.3728 33.1036L21.2081 33.062C20.8702 32.9767 20.5139 32.9234 20.1441 32.9234C18.9021 32.9234 17.7414 33.455 16.8781 34.4006L17.2474 34.7377L16.8781 34.4006L5.37002 47.008C3.59835 48.948 3.59855 52.0874 5.36988 54.0286L5.36995 54.0287L7.30039 56.1434ZM45.6077 16.1751L45.9695 16.3288L46.2042 16.0135L49.4049 11.714C49.6796 11.4031 49.7868 11.0684 49.8028 10.8494L49.8185 10.6348L49.6734 10.4759L47.1837 7.74855L47.0145 7.56312L46.7646 7.58813C46.5041 7.61421 46.1944 7.7549 45.9195 8.04998L45.7797 8.1885L42.006 11.545L41.7622 11.7619L41.8626 12.0724C41.8872 12.1486 41.9218 12.2192 41.9485 12.2711L41.9484 12.2711L41.9534 12.2804L42.6068 13.4851L31.6485 25.1419L31.3074 25.5048L31.6689 25.8473L33.176 27.2754L33.5512 27.6309L33.8941 27.244L44.3886 15.4033L45.4165 16.0722C45.4169 16.0724 45.4173 16.0727 45.4176 16.0729C45.4833 16.116 45.547 16.1494 45.6077 16.1751Z" fill="black" stroke="#D9E564"/>
</svg>
