<svg width="54" height="17" fill="none" xmlns="http://www.w3.org/2000/svg"><path d="M8.531 16v-2.933H.797v-2.384C2.072 8.276 4.217 4.882 7.23.499h3.943v10.302h2.084v2.266h-2.084V16H8.53zm-5.22-5.21v.075h5.263V2.551h-.043a154.713 154.713 0 00-3.147 4.705A53.162 53.162 0 003.31 10.79zM15.084 16V4.613h2.675V16h-2.675zm2.385-13.299a1.45 1.45 0 01-1.053.42 1.45 1.45 0 01-1.053-.42 1.406 1.406 0 01-.43-1.031c0-.408.144-.752.43-1.031.287-.287.638-.43 1.053-.43.415 0 .766.143 1.053.43.293.279.44.623.44 1.03 0 .402-.147.746-.44 1.032zM20.004 16V4.613h2.567V6.59h.054a3.28 3.28 0 011.235-1.6c.573-.395 1.243-.592 2.01-.592.801 0 1.478.201 2.03.602.558.394.941.956 1.149 1.687h.064a3.401 3.401 0 011.354-1.666c.637-.415 1.368-.623 2.191-.623 1.125 0 2.023.348 2.697 1.042.68.695 1.02 1.612 1.02 2.75V16H33.7V8.846c0-.702-.179-1.243-.537-1.622-.35-.38-.852-.57-1.504-.57-.644 0-1.167.215-1.568.645-.401.43-.602.985-.602 1.665V16h-2.6V8.706c0-.63-.182-1.128-.547-1.493-.358-.373-.849-.559-1.472-.559-.644 0-1.17.226-1.579.677-.408.444-.612 1.01-.612 1.697V16h-2.675zm23.429-9.55c-.745 0-1.368.258-1.87.774-.494.508-.77 1.163-.827 1.965h5.318c-.029-.809-.283-1.468-.763-1.976-.48-.509-1.1-.763-1.858-.763zm2.632 6.145h2.502c-.172 1.081-.72 1.958-1.643 2.632-.924.666-2.056.999-3.395.999-1.704 0-3.043-.523-4.017-1.569-.974-1.053-1.461-2.488-1.461-4.307 0-1.805.483-3.252 1.45-4.34.974-1.089 2.28-1.633 3.92-1.633 1.612 0 2.89.52 3.836 1.558.945 1.03 1.418 2.413 1.418 4.146v.87h-7.96v.161c0 .917.258 1.655.773 2.213.523.559 1.221.838 2.095.838.616 0 1.146-.14 1.59-.419.451-.286.748-.67.892-1.15zM50.469 16V4.613h2.675V16h-2.675zm2.384-13.299a1.45 1.45 0 01-1.052.42 1.45 1.45 0 01-1.053-.42 1.407 1.407 0 01-.43-1.031c0-.408.144-.752.43-1.031a1.43 1.43 0 011.053-.43c.415 0 .766.143 1.052.43.294.279.44.623.44 1.03 0 .402-.146.746-.44 1.032z" fill="#000"/></svg>