<svg width="50" height="50" fill="none" xmlns="http://www.w3.org/2000/svg"><path d="M34.419 26.132c-.04-4 2.714-6.254 3.714-6.948a7.49 7.49 0 00-2.415-2.074 8.531 8.531 0 00-3.617-.996l-.023-.001c-1.617-.164-3.23.472-4.548.992-.9.354-1.67.658-2.295.658-.684 0-1.477-.315-2.367-.668-1.081-.429-2.317-.92-3.556-.897h-.002a8.062 8.062 0 00-4.062 1.181 8.75 8.75 0 00-3.039 3.13c-1.377 2.39-1.674 5.313-1.31 8.203.449 3.568 1.901 7.077 3.57 9.488.743 1.074 1.556 2.213 2.464 3.063.863.809 1.814 1.356 2.873 1.317.984-.04 1.703-.346 2.447-.663.935-.398 1.904-.81 3.456-.81 1.484 0 2.413.401 3.306.788.778.336 1.526.66 2.62.64 1.113-.021 2.032-.536 2.847-1.298.848-.793 1.599-1.869 2.337-2.948a19.686 19.686 0 002.333-4.68c-1.12-.542-4.691-2.643-4.733-7.477zm4.448-6.499c-.348.215-3.712 2.297-3.67 6.493.044 5.058 4.333 6.811 4.57 6.908h.001l.01.004.337.14-.116.344-.009.03c-.109.351-.85 2.728-2.527 5.177-.76 1.11-1.535 2.22-2.45 3.075-.947.886-2.029 1.484-3.365 1.509-1.26.023-2.084-.333-2.941-.704-.817-.354-1.668-.722-2.998-.722-1.397 0-2.29.38-3.15.747-.81.345-1.594.68-2.722.724h-.002c-1.303.049-2.432-.587-3.437-1.527-.96-.9-1.802-2.079-2.569-3.188-1.731-2.5-3.237-6.138-3.702-9.837-.383-3.042-.063-6.133 1.408-8.685a9.528 9.528 0 013.31-3.407A8.842 8.842 0 0119.3 15.42c1.392-.025 2.705.496 3.854.952.814.323 1.538.61 2.081.61.48 0 1.187-.279 2.012-.604 1.392-.549 3.096-1.22 4.897-1.041a9.333 9.333 0 013.943 1.087 8.293 8.293 0 012.922 2.643l.226.33-.337.218-.03.018zm-8.884-7.108a8.25 8.25 0 001.468-2.662c.251-.773.38-1.59.343-2.41-.742.09-1.54.355-2.298.745-.893.46-1.724 1.09-2.34 1.81l-.002.002a8.156 8.156 0 00-1.503 2.621c-.255.743-.393 1.53-.345 2.309.781 0 1.565-.206 2.293-.553a7.131 7.131 0 002.383-1.863zm2.21-2.421a9.036 9.036 0 01-1.61 2.916v.001a7.927 7.927 0 01-2.648 2.07c-.945.451-1.981.694-3.012.614l-.316-.025-.041-.314c-.134-1.013.02-2.039.346-2.988a8.96 8.96 0 011.652-2.876c.682-.799 1.596-1.494 2.575-1.997.983-.505 2.038-.821 2.998-.86l.363-.015.04.363c.117 1.06-.025 2.12-.348 3.111z" fill="#CECECE"/></svg>