<svg width="22" height="30" fill="none" xmlns="http://www.w3.org/2000/svg"><path d="M17.916 0H3.407C1.546 0 0 1.51 0 3.372v23.256C0 28.489 1.51 30 3.407 30h14.509c1.861 0 3.407-1.51 3.407-3.372V3.372c0-1.861-1.51-3.372-3.407-3.372zm2.353 26.628c0 1.3-1.053 2.318-2.353 2.318H3.407c-1.3 0-2.353-1.054-2.353-2.318V3.372c0-1.3 1.054-2.318 2.353-2.318h14.509c1.3 0 2.353 1.054 2.353 2.318v23.256z" fill="#000"/><path d="M14.454 1.337H5.777a.54.54 0 00-.527.527.54.54 0 00.527.527h8.677a.54.54 0 00.527-.527.54.54 0 00-.527-.527zm-4.448 20.129c-.983 0-1.756.808-1.756 1.756 0 .457.176.914.527 1.23.316.316.773.492 1.23.492.983 0 1.756-.808 1.756-1.757 0-.948-.773-1.721-1.757-1.721zm.036 2.459a.694.694 0 01-.492-.21.694.694 0 01-.211-.493c0-.386.316-.702.703-.702.386 0 .702.316.702.702a.705.705 0 01-.702.703z" fill="#000"/></svg>