<svg width="30" height="20" fill="none" xmlns="http://www.w3.org/2000/svg"><path d="M27.675 0H2.325A2.328 2.328 0 000 2.325v14.971a2.328 2.328 0 002.325 2.325h25.35A2.327 2.327 0 0030 17.296V2.325A2.328 2.328 0 0027.675 0zM.965 2.325c0-.75.61-1.36 1.36-1.36h25.35c.75 0 1.36.61 1.36 1.36v1.071H.964v-1.07zm28.07 14.97c0 .75-.61 1.36-1.36 1.36H2.325c-.75 0-1.36-.61-1.36-1.36V7.71h28.07v9.586zm0-10.55H.964V4.362h28.07v2.383z" fill="#000"/><path d="M4.666 16.752c.929 0 1.684-.755 1.684-1.683s-.755-1.683-1.684-1.683c-.928 0-1.683.755-1.683 1.683s.755 1.683 1.683 1.683zm0-2.4a.72.72 0 01.719.717.718.718 0 11-.719-.718zm3.601 1.258H21.87a.482.482 0 100-.966H8.267a.483.483 0 100 .965z" fill="#000"/></svg>