<svg width="32" height="38" fill="none" xmlns="http://www.w3.org/2000/svg"><path d="M25.18 20.43c.048 4.73 3.434 6.873 4.678 7.504a19.494 19.494 0 01-2.262 4.498c-.737 1.076-1.475 2.133-2.305 2.909-.796.744-1.676 1.232-2.734 1.252-1.054.02-1.773-.29-2.547-.625l-.002-.001c-.893-.386-1.84-.797-3.348-.797-1.576 0-2.564.422-3.497.819h-.002c-.741.317-1.435.61-2.383.649h-.01c-.993.032-1.899-.48-2.743-1.27-.89-.834-1.69-1.956-2.43-3.026h0c-1.65-2.381-3.086-5.851-3.53-9.379-.36-2.857-.064-5.73 1.286-8.072h0a8.56 8.56 0 012.973-3.062 7.876 7.876 0 013.967-1.154h.001L25.18 20.43zm0 0h0v-.015" fill="#9E9E9E" stroke="#9E9E9E" stroke-width=".3"/></svg>