<svg width="70" height="50" fill="none" xmlns="http://www.w3.org/2000/svg"><path d="M55.898 18.404c-1.91 0-3.8.44-5.553 1.284C49.412 8.975 41.29.574 31.444.574c-10.473 0-18.993 9.501-18.993 21.18 0 1.254.102 2.506.303 3.747a9.637 9.637 0 00-1.764-.163C4.93 25.338 0 30.841 0 37.605 0 44.368 4.93 49.87 10.99 49.87h45.353c.094 0 .186-.013.273-.036C64.142 49.413 70 42.568 70 34.138c0-8.676-6.327-15.734-14.102-15.734zm.404 28.703a1.055 1.055 0 00-.187.023H10.99c-4.728 0-8.575-4.274-8.575-9.526 0-5.254 3.847-9.528 8.575-9.528a7.79 7.79 0 012.996.612c.428.179.911.066 1.243-.29.334-.357.46-.895.327-1.393a20.394 20.394 0 01-.691-5.25c0-10.17 7.438-18.442 16.578-18.442 9.141 0 16.58 8.272 16.58 18.396a5.147 5.147 0 00-.006.155c0 .493.234.948.61 1.19.38.244.843.238 1.215-.014 1.835-1.242 3.93-1.898 6.056-1.898 6.445 0 11.688 5.83 11.688 12.994 0 7.032-4.956 12.729-11.283 12.97z" fill="#000"/></svg>