<svg width="54" height="56" fill="none" xmlns="http://www.w3.org/2000/svg"><path d="M49.288 3.947h0c-.631-.632-1.498-.987-2.451-.987-1.074 0-2.173.454-3.024 1.267l-.014.014-.016.013-4.007 3.252-.137.125c-.757.761-1.065 1.835-.876 2.942l.045.26-.19.183-9.366 9.095-.329.32-.346-.3-1.572-1.36-.234-.203.076-.3c1.109-4.334.936-9.982-2.68-13.599C21.47 1.973 18.033.5 14.494.5c-1.407 0-2.798.235-4.135.698l38.928 2.749zm0 0l2.628 2.629h0c.72.72 1.08 1.76.963 2.864-.101.947-.537 1.872-1.244 2.61l-.014.014-.013.016-3.386 4.154c-.597.587-1.41.916-2.303.916-.21 0-.419-.017-.627-.052l-.26-.045-.183.19-8.586 8.841-.37.38.401.347 14.883 12.877h0l.01.009a.951.951 0 01.075.069h0m-1.974-35.82l1.975 35.82M14.856 9.843l-.013.2-.249 3.88-.026.418-.416.047-4.195.48-.213.023-.165-.137-5.99-5.01v-.001a1.544 1.544 0 00-1.406-.305h0a1.55 1.55 0 00-1.051.987l13.724-.582zm0 0l-.129-.153m.129.153l-.129-.153m0 0L9.68 3.656a1.55 1.55 0 01.68-2.458l4.368 8.491zM4.968 23.867h0c2.122 2.123 5.203 3.272 8.954 3.272.257 0 .517-.012.791-.025l.035-.002 1.438-.07-1.086.946-.037.033a6.87 6.87 0 00-.359.326h0L3.196 39.855c-3 3-3 7.88 0 10.88l1.93 1.931h0a7.639 7.639 0 005.441 2.254c2.056 0 3.987-.8 5.44-2.254h0l11.508-11.508h0a7.477 7.477 0 001.423-1.987l.334-.675.493.57 10.22 11.809s0 0 0 0l.081.087c1.032 1.03 2.612 1.626 4.487 1.626 2.29 0 4.597-.904 6.015-2.322 0 0 0 0 0 0m-45.6-26.4L50.922 50.62l-.354-.354m-45.6-26.4c-4.043-4.04-5.397-8.934-3.836-13.442l3.836 13.443zm45.6 26.4c1.242-1.241 2.084-3.218 2.267-5.238.184-2.02-.298-3.983-1.572-5.261m-.695 10.499l.695-10.5m-2.886 8.31h0c-.873.873-2.407 1.415-3.825 1.415-.877 0-1.734-.207-2.243-.669l-.022-.02-.02-.023-21.72-25.096h0a1.548 1.548 0 00-1.665-.454h0a15.73 15.73 0 01-4.96.813c-2.79 0-5.212-.813-6.764-2.366-1.322-1.322-3.241-3.716-3.53-6.747l-.115-1.212.934.781 3.817 3.194h0c.325.272.747.399 1.17.35l38.943 30.034zm0 0c.817-.816 1.257-2.03 1.383-3.145a5.411 5.411 0 00-.046-1.618c-.096-.49-.28-.96-.593-1.302l-.02-.021-.021-.02-25.1-21.72a1.548 1.548 0 01-.454-1.665h0c.613-1.822.935-4.024.757-6.127-.178-2.098-.859-4.15-2.308-5.6h0c-2.026-2.025-4.58-3.185-7.221-3.257l-1.11-.03.713.85 3.27 3.91h0c.255.304.383.694.357 1.091 0 0 0 0 0 0l-.41 6.408h0a1.548 1.548 0 01-1.37 1.44l-6.77.773 38.943 30.033zm-41.06 2.4h0a4.572 4.572 0 003.25 1.347 4.57 4.57 0 003.25-1.346l-.353-.354.354.354 11.508-11.509a4.58 4.58 0 001.339-3.301l-.002-.183-.12-.139-5.08-5.869-.106-.123-.159-.037a4.57 4.57 0 00-4.304 1.22h0L5.386 42.047a4.601 4.601 0 000 6.5h0l1.93 1.93zm38.305-36.484l.34.13.229-.28 3.2-3.924c.278-.289.394-.607.412-.828l.018-.23-.163-.163-2.49-2.49-.166-.165-.233.021c-.248.023-.555.146-.833.419l-.14.126-3.773 3.064-.274.222.118.333c.027.075.064.144.09.191h0l.006.01.624 1.05-10.923 10.607-.39.38.412.357 1.507 1.303.357.309.329-.339 10.505-10.82 1.05.624h.001c.065.04.128.07.187.093z" fill="#000" stroke="#F4EAAF"/></svg>