<svg width="39" height="47" fill="none" xmlns="http://www.w3.org/2000/svg"><path d="M12.365 11.62l-.095.002v0a10.99 10.99 0 00-5.385 1.604l.078.129-.078-.129a11.824 11.824 0 00-4.108 4.228C.953 20.618.56 24.44 1.033 28.188c.573 4.556 2.427 9.035 4.561 12.117.939 1.358 1.978 2.815 3.169 3.93 1.244 1.165 2.664 1.972 4.315 1.912v0h.006c1.41-.056 2.39-.474 3.382-.897l.005-.002c1.05-.448 2.122-.903 3.801-.903 1.597 0 2.615.44 3.613.872l.005.001c1.05.455 2.085.903 3.66.873 1.686-.031 3.045-.787 4.223-1.888 1.135-1.061 2.093-2.434 3.023-3.793l-.124-.085.124.085c2.066-3.019 2.98-5.947 3.116-6.381h0l.004-.014a.295.295 0 00.003-.01l.002-.009v-.002h0l.142-.422.044-.133-.129-.053-.412-.17-.013-.006-.027-.011h-.002c-.492-.205-5.426-2.359-5.478-8.315h0c-.05-4.967 3.865-7.478 4.4-7.81l.025-.016h0l.015-.009h.002c.003-.003.007-.004.01-.006a.414.414 0 00.013-.009L12.365 11.62zm0 0h.052c1.736-.032 3.368.616 4.769 1.171l.011.005c.5.198.966.383 1.39.519.424.136.795.218 1.104.218.27 0 .614-.08 1.028-.213.41-.134.875-.317 1.382-.517l.012-.004c1.698-.67 3.812-1.503 6.053-1.282.942.042 2.894.267 4.892 1.35 1.275.691 2.57 1.73 3.632 3.285l-.123.085.123-.085.277.405.087.127-.13.083-.413.267-24.146-5.414zm18.428 13.287c.057 5.84 4.26 8.466 5.764 9.223a24.017 24.017 0 01-2.797 5.572c-.907 1.324-1.817 2.628-2.842 3.586-.983.92-2.074 1.526-3.388 1.55-1.305.025-2.196-.36-3.148-.772h-.003c-1.097-.476-2.259-.978-4.107-.978-1.932 0-3.143.516-4.29 1.005h-.003c-.911.389-1.77.754-2.944.8l-.014.001c-1.235.04-2.358-.598-3.399-1.573l-.102.11.102-.11c-1.098-1.03-2.086-2.412-2.996-3.729h0c-2.033-2.935-3.803-7.21-4.35-11.557-.442-3.521-.08-7.066 1.587-9.957h0a10.57 10.57 0 013.67-3.78 9.726 9.726 0 014.9-1.425h.002v0h.002c1.483-.027 2.968.56 4.298 1.088l.056-.14-.056.14.024.01c1.072.425 2.066.819 2.932.819.405 0 .85-.098 1.325-.248.475-.149.99-.352 1.539-.568l.003-.002c1.621-.639 3.563-1.401 5.502-1.205h.005l.028.002h.004c.827.035 2.575.233 4.365 1.203a9.022 9.022 0 012.817 2.376c-1.33.954-4.535 3.733-4.487 8.546v.013h0zm-3.63-19.993a9.95 9.95 0 01-1.685 3.107l-.087.104a8.588 8.588 0 01-2.868 2.243c-.831.396-1.719.639-2.602.66-.034-.882.13-1.777.421-2.627l-.134-.046.134.046a9.841 9.841 0 011.809-3.155h0l.008-.01c.74-.866 1.742-1.627 2.821-2.182.86-.442 1.76-.75 2.603-.874a8.226 8.226 0 01-.42 2.734zm-.804 4.012l.034-.042v-.002a11.236 11.236 0 001.92-3.447h0l.044-.132c.402-1.232.578-2.552.433-3.875h0l-.049-.444-.015-.14-.14.006-.445.018c-1.203.05-2.517.444-3.735 1.07-1.215.625-2.351 1.488-3.2 2.483l-.09.106h0a11.139 11.139 0 00-1.962 3.467c-.405 1.18-.6 2.46-.432 3.729l.051.384.016.121.121.01.387.03c1.294.1 2.59-.205 3.766-.766a9.861 9.861 0 003.296-2.576z" fill="#fff" stroke="#fff" stroke-width=".3"/></svg>