<svg width="32" height="45" fill="none" xmlns="http://www.w3.org/2000/svg"><path d="M26.873 0H5.111C2.32 0 0 2.266 0 5.059V39.94C0 42.734 2.266 45 5.111 45h21.763c2.792 0 5.11-2.266 5.11-5.059V5.06C31.985 2.266 29.72 0 26.875 0zm3.531 39.941c0 1.95-1.58 3.478-3.53 3.478H5.11c-1.95 0-3.53-1.58-3.53-3.477V5.058c0-1.95 1.58-3.478 3.53-3.478h21.763c1.95 0 3.53 1.58 3.53 3.478V39.94z" fill="#fff"/><path d="M21.68 2.007H8.666a.81.81 0 00-.79.79c0 .422.369.79.79.79h13.016a.81.81 0 00.79-.79.81.81 0 00-.79-.79zm-6.67 30.19a2.642 2.642 0 00-2.635 2.635c0 .685.264 1.37.79 1.844.475.474 1.16.738 1.845.738a2.642 2.642 0 002.634-2.635c0-1.423-1.159-2.582-2.634-2.582zm.052 3.689a1.04 1.04 0 01-.737-.316 1.04 1.04 0 01-.316-.738c0-.58.474-1.054 1.053-1.054.58 0 1.054.474 1.054 1.054 0 .58-.474 1.054-1.054 1.054z" fill="#fff"/></svg>