<svg width="60" height="56" fill="none" xmlns="http://www.w3.org/2000/svg"><path d="M59.314 49.134L47.981 38.672a1.134 1.134 0 00-.769-.294c-.288 0-.565.105-.769.294l-1.86 1.719-3.344-3.09c4.08-3.965 6.593-9.319 6.593-15.208C47.832 9.91 37.102 0 23.916 0 10.729 0 0 9.91 0 22.092c0 12.183 10.729 22.093 23.916 22.093 6.032 0 11.545-2.078 15.756-5.493l3.377 3.118-1.558 1.44a.95.95 0 00.001 1.419l11.332 10.462c.204.188.48.294.769.294.288 0 .564-.106.768-.294l4.954-4.578a.967.967 0 00.318-.71.969.969 0 00-.319-.71zM2.174 22.092c0-11.075 9.753-20.085 21.742-20.085 11.99 0 21.743 9.01 21.743 20.085 0 11.075-9.753 20.085-21.743 20.085-11.989 0-21.743-9.01-21.743-20.085zm51.417 30.91l-9.794-9.044 3.417-3.158 9.795 9.044-3.418 3.158z" fill="#000"/></svg>