<svg width="70" height="56" fill="none" xmlns="http://www.w3.org/2000/svg"><path d="M64.025 0H16.318c-2.849 0-5.131 1.85-5.197 4.24v9.243c0 .598.524 1.082 1.171 1.082.648 0 1.172-.484 1.172-1.082V4.267c.032-1.16 1.312-2.103 2.854-2.103h47.707c1.575 0 2.857.963 2.857 2.147v35.307c0 1.185-1.282 2.148-2.858 2.148H16.319c-1.574 0-2.854-.963-2.854-2.148v-5.055c0-.597-.524-1.082-1.172-1.082-.647 0-1.17.485-1.17 1.082v5.055c0 2.378 2.33 4.313 5.196 4.313H38.82v9.33H23.952c-.647 0-1.17.485-1.17 1.082 0 .597.523 1.082 1.17 1.082h31.95c.646 0 1.17-.485 1.17-1.082 0-.597-.524-1.082-1.17-1.082H41.163V43.93h22.86c2.868 0 5.2-1.935 5.2-4.313V4.311c0-2.377-2.332-4.311-5.2-4.311z" fill="#000"/><path d="M12.053 27.792c.303 0 .603-.107.829-.317l16.923-15.633a1.024 1.024 0 000-1.53 1.24 1.24 0 00-1.656 0L11.926 25.3 1.851 18.672c-.528-.346-1.258-.232-1.634.254-.375.487-.252 1.163.276 1.51l10.883 7.156c.204.135.442.2.678.2z" fill="#000"/></svg>