<svg width="45" height="56" fill="none" xmlns="http://www.w3.org/2000/svg"><path d="M44.634 11.885L32.129.338A1.303 1.303 0 0031.245 0H5C2.242 0 0 2.071 0 4.619v46.187c0 2.547 2.242 4.619 5 4.619h35c2.758 0 5-2.072 5-4.619V12.702c0-.307-.132-.6-.366-.817zM42.5 50.806c0 1.273-1.122 2.31-2.5 2.31H5c-1.378 0-2.5-1.037-2.5-2.31V4.62c0-1.273 1.122-2.31 2.5-2.31h25.728L42.5 13.18v37.627z" fill="#000"/><path d="M25.135 44.44c.08-1.273-.973-2.364-2.352-2.438-1.378-.073-2.56.9-2.64 2.173-.079 1.273.974 2.365 2.353 2.438 1.378.074 2.56-.9 2.64-2.172zM22.5 36.95c.828 0 1.5-.505 1.5-1.129V17.757c0-.624-.672-1.13-1.5-1.13s-1.5.506-1.5 1.13v18.064c0 .624.672 1.13 1.5 1.13z" fill="#000"/></svg>