<svg width="43" height="56" fill="none" xmlns="http://www.w3.org/2000/svg"><path d="M35.831 0H6.815C3.091 0 0 2.79 0 6.23v42.964c0 3.44 3.021 6.23 6.815 6.23h29.016c3.724 0 6.815-2.79 6.815-6.23V6.23c0-3.44-3.02-6.23-6.815-6.23zm4.708 49.194c0 2.402-2.108 4.284-4.708 4.284H6.815c-2.6 0-4.707-1.947-4.707-4.284V6.23c0-2.4 2.107-4.283 4.707-4.283h29.016c2.6 0 4.708 1.947 4.708 4.283v42.964z" fill="#000"/><path d="M29.93 6.165H12.578c-.562 0-1.054.454-1.054.974 0 .519.492.973 1.054.973h17.354c.562 0 1.054-.454 1.054-.973 0-.52-.492-.974-1.054-.974zm-8.644 37.188c-1.967 0-3.513 1.493-3.513 3.245 0 .844.352 1.688 1.054 2.272.633.584 1.546.909 2.46.909 1.966 0 3.512-1.493 3.512-3.245 0-1.753-1.546-3.18-3.513-3.18zm.07 4.544c-.35 0-.702-.13-.983-.39a1.235 1.235 0 01-.422-.908c0-.714.633-1.298 1.406-1.298.772 0 1.405.584 1.405 1.297 0 .714-.633 1.299-1.405 1.299z" fill="#000"/></svg>