<svg width="45" height="30" fill="none" xmlns="http://www.w3.org/2000/svg"><path d="M41.513 0H3.488A3.492 3.492 0 000 3.488v22.456a3.491 3.491 0 003.488 3.487h38.025A3.491 3.491 0 0045 25.944V3.488A3.491 3.491 0 0041.513 0zM1.448 3.488c0-1.125.915-2.04 2.04-2.04h38.024c1.125 0 2.04.915 2.04 2.04v1.606H1.447V3.488zm42.104 22.456a2.042 2.042 0 01-2.04 2.038H3.489a2.042 2.042 0 01-2.04-2.038V11.565h42.104v14.379zm0-15.827H1.448V6.542h42.104v3.575z" fill="#fff"/><path d="M6.997 25.13a2.527 2.527 0 002.526-2.524 2.528 2.528 0 00-2.526-2.526 2.528 2.528 0 00-2.524 2.526 2.527 2.527 0 002.524 2.523zm0-3.601c.594 0 1.077.483 1.077 1.077a1.077 1.077 0 01-2.153 0c0-.594.483-1.078 1.076-1.078zm5.403 1.883h20.405a.724.724 0 100-1.448H12.4a.724.724 0 100 1.448z" fill="#fff"/></svg>