<svg width="59" height="61" fill="none" xmlns="http://www.w3.org/2000/svg"><path d="M9.351 16.074L2.54 10.375a1.17 1.17 0 00-1.857.515c-1.71 4.938-.17 10.289 4.223 14.68 2.321 2.322 5.698 3.549 9.767 3.549h.417l1.794 1.482L2.89 44.593a8.105 8.105 0 00-2.386 5.77 8.1 8.1 0 002.386 5.77l2.195 2.197a8.104 8.104 0 005.77 2.39c2.18 0 4.23-.849 5.77-2.39l13.09-13.091a7.933 7.933 0 001.508-2.104l.775-1.567 1.143 1.322 11.627 13.434c.018.021.04.043.062.066 1.087 1.082 2.75 1.677 4.686 1.677 2.439 0 4.9-.946 6.423-2.468 2.619-2.619 3.515-8.367.793-11.103l-.001-.001-.047-.044-.02-.017-17.86-15.454 11.049-11.378.602.102c.202.035.408.053.614.053.84 0 1.613-.303 2.183-.853l3.858-4.732.031-.032c.709-.74 1.155-1.673 1.256-2.625.113-1.064-.224-2.076-.925-2.777l-2.99-2.99c-.61-.613-1.452-.95-2.369-.95-1.077 0-2.181.466-3.03 1.278l-.069.06-4.548 3.692-.133.12c-.706.717-1.005 1.743-.82 2.818l.102.603-.437.425-11.42 11.088-3.134-2.713.177-.694c.574-2.245 2.06-9.95-2.895-14.906C22.96 1.623 19.202 0 15.324 0c-1.534 0-3.051.256-4.51.762a1.169 1.169 0 00-.514 1.857l6.04 7.218-.375 5.845-.964.111-5.268.601-.382-.32zm18.711 27.511l-13.09 13.09a5.784 5.784 0 01-4.116 1.706 5.787 5.787 0 01-4.116-1.705L4.543 54.48a5.783 5.783 0 01-1.702-4.116 5.78 5.78 0 011.702-4.116l13.091-13.091a5.783 5.783 0 015.447-1.547l.37.086 6.304 7.284.004.425a5.77 5.77 0 01-1.697 4.18zm6.38-20.048l12.09-11.74-.484-.814a1.94 1.94 0 01-.146-.313l-.274-.772.637-.517 4.28-3.475.138-.125c.509-.495 1.031-.61 1.3-.634l.54-.05 3.597 3.596-.043.535c-.035.443-.26.91-.617 1.287l-4.157 5.097-.786-.306a2.013 2.013 0 01-.303-.148l-.791-.47-12.389 12.759-3.5-3.028.907-.882zm-17.24-5.641a1.168 1.168 0 001.033-1.087l.467-7.29c.02-.3-.076-.593-.27-.824L13.06 2.273l2.575.07c3.14.087 6.2 1.464 8.616 3.88 1.591 1.59 2.558 3.92 2.797 6.734.2 2.354-.117 4.915-.89 7.212-.152.452-.018.946.343 1.258l28.601 24.75.045.049c.74.81 1.06 2.19.88 3.789-.177 1.567-.812 3-1.742 3.93-1.083 1.083-2.955 1.783-4.77 1.783-1.234 0-2.308-.333-2.949-.914l-.05-.045-.045-.052-24.71-28.55a1.17 1.17 0 00-1.256-.344 18.5 18.5 0 01-5.833.956c-3.385 0-6.266-1.017-8.112-2.865-1.724-1.724-3.85-4.518-4.185-8.037l-.268-2.813 6.51 5.446c.245.205.567.301.885.265l7.7-.88z" fill="#000"/></svg>