<svg width="54" height="62" fill="none" xmlns="http://www.w3.org/2000/svg"><path d="M49.272 5.172h0a3.256 3.256 0 00-2.435-1.078c-1.058 0-2.153.49-3.008 1.385l-.014.014-.015.014-4.007 3.563-.138.137c-.767.844-1.085 2.046-.89 3.289l.037.242-.167.178-9.367 9.963-.344.366-.364-.346-1.572-1.49-.208-.197.065-.28c1.112-4.765.94-10.987-2.694-14.969-2.701-2.958-6.133-4.565-9.655-4.565-1.402 0-2.788.257-4.122.763-.47.179-.853.61-.997 1.177l-.484-.123.484.123a1.912 1.912 0 00.316 1.613s0 0 0 0l5.048 6.61.113.147-.01.185-.25 4.251-.024.416-.413.051-4.195.525-.23.028-.17-.156-5.99-5.489h0a1.41 1.41 0 00-1.378-.332h0c-.478.146-.882.547-1.058 1.102m48.136-7.117L1.136 12.289m48.136-7.117l2.628 2.88h0c.729.798 1.098 1.959.978 3.197a5.205 5.205 0 01-1.258 2.9l-.013.014-.012.016-3.388 4.552a3.084 3.084 0 01-2.288 1.003 3.32 3.32 0 01-.62-.058l-.278-.051-.188.211-8.586 9.687-.32.362.35.332L51.16 44.324h0l.01.01.016.014c.015.014.032.032.06.063 1.287 1.413 1.774 3.588 1.59 5.822-.186 2.232-1.035 4.413-2.283 5.78-1.422 1.557-3.725 2.541-6 2.541-1.861 0-3.436-.648-4.471-1.779a2.704 2.704 0 01-.082-.096s0 0 0 0m9.272-51.507L40 56.678M1.136 12.288c-1.574 4.98-.2 10.373 3.848 14.806h0c2.125 2.33 5.2 3.582 8.938 3.582.255 0 .514-.013.79-.028l.034-.002 1.348-.07-.977.931-.038.037a6.743 6.743 0 00-.359.358h0L3.212 44.508c-3.021 3.309-3.021 8.71 0 12.02l1.93 2.114h0C6.6 60.24 8.527 61.11 10.567 61.11s3.967-.869 5.425-2.467h0l11.507-12.606h0a8.273 8.273 0 001.432-2.19l.338-.75.51.646 10.22 12.936M1.136 12.288L40 56.678m8.394-3.164h0c-.87.953-2.409 1.552-3.84 1.552-.887 0-1.752-.23-2.26-.735l-.022-.022-.018-.023-21.72-27.492h0c-.42-.53-1.066-.71-1.637-.5h0a14.529 14.529 0 01-4.975.893c-2.802 0-5.23-.895-6.779-2.594l41.251 28.921zm0 0c.809-.886 1.243-2.201 1.368-3.405a6.382 6.382 0 00-.046-1.746c-.094-.526-.274-1.028-.579-1.393l-.018-.023-.022-.02-25.1-23.794c-.483-.459-.68-1.212-.466-1.903h0c.61-1.986.93-4.387.753-6.676-.176-2.282-.852-4.513-2.293-6.092h0c-2.02-2.214-4.578-3.492-7.235-3.571l-1.05-.032.638.835 3.27 4.282h0c.262.342.398.79.371 1.25l-.41 7.02h0c-.05.876-.66 1.53-1.375 1.619l-6.77.847a1.427 1.427 0 01-1.147-.381h0l-3.818-3.499-.947-.868m44.876 37.55L3.517 15.964m0 0l.111 1.28m-.111-1.28l.111 1.28m0 0c.286 3.29 2.19 5.9 3.514 7.35l-3.514-7.35zm3.672 38.9h0c.864.945 2.024 1.477 3.267 1.477 1.243 0 2.403-.532 3.267-1.478l-.37-.337.37.337L25.34 43.537c.904-.99 1.337-2.288 1.324-3.566l-.002-.17-.106-.135-5.079-6.43-.105-.132-.165-.042a4.342 4.342 0 00-1.064-.139c-1.242 0-2.403.532-3.266 1.478l.37.337-.37-.337L5.37 47.008c-1.772 1.94-1.771 5.08 0 7.02h0l1.93 2.115zm38.308-39.969l.361.154.235-.316 3.2-4.299c.276-.31.383-.646.399-.865l.016-.214-.146-.16-2.49-2.726-.169-.186-.25.025c-.26.026-.57.167-.845.462l-.14.138-3.773 3.357-.244.217.1.31c.025.077.06.147.087.2h0l.004.008.654 1.205-10.959 11.657-.34.363.36.342 1.508 1.428.375.356.343-.387 10.495-11.84 1.027.668h.002c.065.044.129.077.19.103z" fill="#000" stroke="#D9E564"/></svg>